
        <svg xmlns="http://www.w3.org/2000/svg" xmlns:xlink="http://www.w3.org/1999/xlink" version="1.1" width="3171.4285714285716" height="1333.1523725970742" viewBox="0 0 3171.4285714285716 1333.1523725970742">
			
			<g transform="scale(8.571428571428573) translate(10, 10)">
				<defs id="SvgjsDefs1001"/><g id="SvgjsG1007" featureKey="DMynUx-0" transform="matrix(2.1696956001944376,0,0,2.1696956001944376,67.01414194595162,-88.99440072519937)" fill="#fff"><g xmlns="http://www.w3.org/2000/svg"><path d="M35.318,41.017H6.446l6.451,4.253l23.108-2.02c0.143-0.013,0.269,0.089,0.288,0.23c0.02,0.142-0.076,0.272-0.216,0.298   l-20.146,3.71l4.98,3.646l18.053-4.135C37.456,45.225,36.24,43.232,35.318,41.017z"/><path d="M29.096,57.131l0.118,0.085c1.708,1.178,3.626,1.765,5.772,1.766c3.687,0.002,8.068-1.763,13.115-5.323   c-1.408-0.632-2.72-1.334-3.93-2.124L29.096,57.131z"/><path d="M40.172,48.318L23.1,52.74l4.011,2.944l15.573-5.187C41.782,49.816,40.944,49.092,40.172,48.318z"/><path d="M63.996,43.25l23.108,2.02l6.451-4.253H64.682c-0.923,2.215-2.139,4.208-3.645,5.982l18.053,4.135l4.981-3.646   l-20.147-3.71c-0.14-0.026-0.236-0.157-0.216-0.298C63.727,43.338,63.853,43.237,63.996,43.25z"/><path d="M51.899,53.66c5.047,3.561,9.428,5.326,13.115,5.323c2.146-0.001,4.064-0.589,5.772-1.766l0.118-0.085l-15.075-5.595   C54.619,52.326,53.306,53.028,51.899,53.66z"/><path d="M57.316,50.496l15.573,5.187L76.9,52.74l-17.072-4.422C59.056,49.092,58.218,49.816,57.316,50.496z"/></g></g><g id="SvgjsG1008" featureKey="xgcenu-0" transform="matrix(4.811658101165942,0,0,4.811658101165942,-2.5982954778765905,22.142690501760143)" fill="#fff"><path d="M0.54 19.7 l0 -2.82 c0.24 0.06 0.54 0.12 0.88 0.16 c0.34 0.06 0.7 0.1 1.08 0.12 s0.76 0.04 1.16 0.06 s0.78 0.04 1.12 0.04 c0.94 0 1.6 -0.06 2 -0.16 c0.38 -0.1 0.58 -0.28 0.58 -0.56 c0 -0.24 -0.18 -0.42 -0.36 -0.56 c-0.66 -0.44 -1.44 -0.62 -2.22 -0.8 c-2.2 -0.44 -4.22 -1.32 -4.22 -3.84 c0 -2.98 2.82 -3.68 5.24 -3.68 c1.34 0 2.7 0.14 4 0.46 l0 2.82 c-0.2 -0.06 -0.46 -0.1 -0.78 -0.16 c-0.34 -0.04 -0.68 -0.08 -1.06 -0.12 c-0.78 -0.08 -1.52 -0.12 -2.3 -0.12 c-0.44 0 -1.36 0 -1.78 0.16 c-0.28 0.1 -0.46 0.22 -0.46 0.54 c0 0.16 0.04 0.3 0.12 0.42 c0.08 0.14 0.22 0.24 0.4 0.34 c0.54 0.3 1.24 0.48 1.84 0.62 c0.5 0.12 1 0.26 1.52 0.4 c1.76 0.48 2.92 1.46 2.92 3.34 c0 3.1 -3.08 3.76 -5.56 3.76 c-1.36 0 -2.78 -0.1 -4.12 -0.42 z M11.16 7.76 l10.2 0 l0 2.78 l-3.6 0 l0 9.46 l-3 0 l0 -9.46 l-3.6 0 l0 -2.78 z M30.5 17.52 l-4.5 0 l-0.88 2.48 l-3.26 0 l4.9 -12.24 l3 0 l4.9 12.24 l-3.28 0 z M26.98 14.74 l2.54 0 l-1.26 -3.56 z M33.760000000000005 7.76 l10.2 0 l0 2.78 l-3.6 0 l0 9.46 l-3 0 l0 -9.46 l-3.6 0 l0 -2.78 z M45.44 7.76 l3 0 l0 12.24 l-3 0 l0 -12.24 z M58.5 7.76 l3 0 l0 12.24 l-3 0 l-4.8 -7.16 l0 7.16 l-3 0 l0 -12.24 l3 0 l4.8 7.16 l0 -7.16 z M63.080000000000005 7.76 l10.2 0 l0 2.78 l-3.6 0 l0 9.46 l-3 0 l0 -9.46 l-3.6 0 l0 -2.78 z"/></g><g id="SvgjsG1009" featureKey="jZLKOX-0" transform="matrix(0.40019866633012807,0,0,0.40019866633012807,6.765483404440681,127.41325191949129)" fill="#fff"><path d="M4.5215 4.257999999999999 l3.1543 0 l3.9355 0 l0 3.1445 l-3.9355 0 l0 12.598 l-3.1543 0 l0 -12.598 l-3.9355 0 l0 -3.1445 l3.9355 0 z M46.563804687499996 4.257999999999999 l3.1738 0 l0 6.3281 l0 3.1641 c0 1.748 -0.61523 3.2422 -1.8555 4.4824 s-2.7344 1.8555 -4.4727 1.8555 c-1.748 0 -3.2422 -0.61523 -4.4824 -1.8555 s-1.8555 -2.7344 -1.8555 -4.4824 l0 -3.1641 l0 -6.3281 l3.1738 0 l0 6.3281 l0 2.832 l0 0.32227 c0 0.86914 0.3125 1.6113 0.92773 2.2266 s1.3574 0.92773 2.2266 0.92773 c0.85938 0 1.6016 -0.3125 2.2266 -0.92773 s0.9375 -1.3574 0.9375 -2.2266 l0 -0.32227 l0 -2.832 l0 -6.3281 z M75.392578125 20 l-0.0097656 -15.762 l5.1172 0 c1.5137 0 3.0078 0.52734 4.0918 1.6113 s1.5234 2.0996 1.5234 3.6133 l0 0.48828 c0 1.1719 -0.33203 2.0313 -0.99609 2.9688 s-1.2207 1.2109 -2.2559 1.6016 l3.5547 5.4785 l-3.8477 0 l-4.0234 -6.1523 l0 6.1523 l-3.1543 0 z M78.537128125 11.8164 l2.2559 0.0097656 c0.6543 0 0.98633 -0.16602 1.4453 -0.625 s0.625 -0.98633 0.625 -1.6406 c0 -0.64453 -0.16602 -1.0742 -0.625 -1.543 s-1.2793 -0.63477 -1.9336 -0.63477 l-1.7676 0 l0 4.4336 z M111.9853515625 3.965 l9.4434 8.9941 l0 -8.7012 l3.1543 0 l0 16.035 l-9.4434 -9.0039 l0 8.7109 l-3.1543 0 l0 -16.035 z M184.0869109375 4.297000000000001 l0 -0.0097656 c2.1582 0 4.1992 0.77148 5.7422 2.3145 c2.8125 2.8125 2.8125 8.291 0 11.094 c-1.543 1.5332 -3.584 2.3047 -5.7422 2.3047 l-3.8867 0 l0 -15.703 l3.8867 0 z M184.0967109375 16.8457 l0.0097656 0 c1.2891 0 2.4805 -0.36133 3.3984 -1.2793 s1.2793 -2.1289 1.2793 -3.4277 c0 -1.2891 -0.36133 -2.5 -1.2891 -3.4277 c-0.91797 -0.92773 -2.1289 -1.2891 -3.418 -1.2891 l-0.72266 0 l0 9.4238 l0.74219 0 z M221.20701875 14.7949 l2.7832 0 l-1.3867 -3.2715 z M219.91801875 17.5781 l-0.019531 -0.0097656 c-0.35156 0.80078 -0.71289 1.5918 -1.0742 2.3926 l-3.3887 0 l7.1387 -15.996 l7.1582 15.996 l-3.3984 0 c-0.35156 -0.79102 -0.70313 -1.5918 -1.0547 -2.3828 l-5.3613 0 z M255.9443515625 4.257999999999999 l3.1543 0 l3.9355 0 l0 3.1445 l-3.9355 0 l0 12.598 l-3.1543 0 l0 -12.598 l-3.9355 0 l0 -3.1445 l3.9355 0 z M291.023425 14.7949 l2.7832 0 l-1.3867 -3.2715 z M289.734425 17.5781 l-0.019531 -0.0097656 c-0.35156 0.80078 -0.71289 1.5918 -1.0742 2.3926 l-3.3887 0 l7.1387 -15.996 l7.1582 15.996 l-3.3984 0 c-0.35156 -0.79102 -0.70313 -1.5918 -1.0547 -2.3828 l-5.3613 0 z M354.814453125 20 l0 -15.742 l3.1543 0 l0 15.742 l-3.1543 0 z M383.6337890625 3.965 l9.4434 8.9941 l0 -8.7012 l3.1543 0 l0 16.035 l-9.4434 -9.0039 l0 8.7109 l-3.1543 0 l0 -16.035 z M425.636734375 4.257999999999999 l3.1543 0 l3.9355 0 l0 3.1445 l-3.9355 0 l0 12.598 l-3.1543 0 l0 -12.598 l-3.9355 0 l0 -3.1445 l3.9355 0 z M465.7548390625 4.18 c2.1875 0 4.0625 0.78125 5.625 2.3438 s2.3438 3.4375 2.3438 5.625 s-0.78125 4.0625 -2.3438 5.6152 s-3.4375 2.334 -5.625 2.334 s-4.0625 -0.78125 -5.6152 -2.334 s-2.334 -3.4277 -2.334 -5.6152 s0.78125 -4.0625 2.334 -5.625 s3.4277 -2.3438 5.6152 -2.3438 z M465.7548390625 7.353999999999999 c-1.3184 0 -2.4414 0.46875 -3.3691 1.4063 s-1.3965 2.0605 -1.3965 3.3691 c0 1.3184 0.46875 2.4414 1.3965 3.3691 s2.0508 1.3965 3.3691 1.3965 c1.3086 0 2.4316 -0.46875 3.3691 -1.3965 s1.4063 -2.0508 1.4063 -3.3691 c0 -1.3086 -0.46875 -2.4316 -1.4063 -3.3691 s-2.0605 -1.4063 -3.3691 -1.4063 z M532.8173796875 4.297000000000001 l0 -0.0097656 c2.1582 0 4.1992 0.77148 5.7422 2.3145 c2.8125 2.8125 2.8125 8.291 0 11.094 c-1.543 1.5332 -3.584 2.3047 -5.7422 2.3047 l-3.8867 0 l0 -15.703 l3.8867 0 z M532.8271796875 16.8457 l0.0097656 0 c1.2891 0 2.4805 -0.36133 3.3984 -1.2793 s1.2793 -2.1289 1.2793 -3.4277 c0 -1.2891 -0.36133 -2.5 -1.2891 -3.4277 c-0.91797 -0.92773 -2.1289 -1.2891 -3.418 -1.2891 l-0.72266 0 l0 9.4238 l0.74219 0 z M573.501909375 4.18 c2.1875 0 4.0625 0.78125 5.625 2.3438 s2.3438 3.4375 2.3438 5.625 s-0.78125 4.0625 -2.3438 5.6152 s-3.4375 2.334 -5.625 2.334 s-4.0625 -0.78125 -5.6152 -2.334 s-2.334 -3.4277 -2.334 -5.6152 s0.78125 -4.0625 2.334 -5.625 s3.4277 -2.3438 5.6152 -2.3438 z M573.501909375 7.353999999999999 c-1.3184 0 -2.4414 0.46875 -3.3691 1.4063 s-1.3965 2.0605 -1.3965 3.3691 c0 1.3184 0.46875 2.4414 1.3965 3.3691 s2.0508 1.3965 3.3691 1.3965 c1.3086 0 2.4316 -0.46875 3.3691 -1.3965 s1.4063 -2.0508 1.4063 -3.3691 c0 -1.3086 -0.46875 -2.4316 -1.4063 -3.3691 s-2.0605 -1.4063 -3.3691 -1.4063 z M606.7255859375 3.965 l7.6758 10.527 l7.6758 -10.527 l0 16.035 l-3.1543 0 l0 -6.4941 l-4.5215 6.2402 l-4.5215 -6.2402 l0 6.4941 l-3.1543 0 l0 -16.035 z M647.7421875 20 l0 -15.742 l3.1543 0 l0 15.742 l-3.1543 0 z M676.5615234375 3.965 l9.4434 8.9941 l0 -8.7012 l3.1543 0 l0 16.035 l-9.4434 -9.0039 l0 8.7109 l-3.1543 0 l0 -16.035 z M720.17576875 14.7949 l2.7832 0 l-1.3867 -3.2715 z M718.88676875 17.5781 l-0.019531 -0.0097656 c-0.35156 0.80078 -0.71289 1.5918 -1.0742 2.3926 l-3.3887 0 l7.1387 -15.996 l7.1582 15.996 l-3.3984 0 c-0.35156 -0.79102 -0.70313 -1.5918 -1.0547 -2.3828 l-5.3613 0 z M754.0048828125 3.965 l9.4434 8.9941 l0 -8.7012 l3.1543 0 l0 16.035 l-9.4434 -9.0039 l0 8.7109 l-3.1543 0 l0 -16.035 z M799.826128125 4.18 l-0.0097656 0.039063 c1.0938 0 2.1191 0.20508 3.0859 0.625 s1.8164 0.98633 2.5488 1.6992 l-2.2461 2.2461 c-0.94727 -0.9375 -2.0703 -1.4063 -3.3691 -1.4063 c-1.3184 0 -2.4414 0.46875 -3.3691 1.4063 s-1.3965 2.0605 -1.3965 3.3691 c0 1.3184 0.46875 2.4414 1.3965 3.3691 s2.0508 1.3965 3.3691 1.3965 s2.4414 -0.46875 3.3789 -1.4063 l2.2461 2.2461 c-0.73242 0.72266 -1.582 1.2891 -2.5488 1.709 s-1.9922 0.625 -3.0859 0.625 c-2.1875 0 -4.0625 -0.78125 -5.6152 -2.334 s-2.334 -3.4277 -2.334 -5.6152 s0.78125 -4.0625 2.334 -5.625 s3.4277 -2.3438 5.6152 -2.3438 z M830.7255859375 4.257999999999999 l9.4434 0 l0 3.1445 l-6.2891 0 l0 3.1543 l4.7168 0 l0 3.1445 l-4.7168 0 l0 3.1445 l6.2891 0 l0 3.1543 l-6.2891 0 l-3.1543 0 l0 -15.742 z"/></g>
			</g>
		</svg>
	